<?xml version="1.0" standalone="no"?>
<!DOCTYPE svg PUBLIC "-//W3C//DTD SVG 20010904//EN"
 "http://www.w3.org/TR/2001/REC-SVG-20010904/DTD/svg10.dtd">
<svg version="1.0" xmlns="http://www.w3.org/2000/svg"
 width="750.000000pt" height="750.000000pt" viewBox="0 0 750.000000 750.000000"
 preserveAspectRatio="xMidYMid meet">
<metadata>
Created by potrace 1.14, written by Peter Selinger 2001-2017
</metadata>
<g transform="translate(0.000000,750.000000) scale(0.100000,-0.100000)"
fill="#000000" stroke="none">
<path d="M1392 7462 c-1 -51 -52 -249 -82 -317 -4 -11 -23 -56 -40 -100 -29
-73 -158 -335 -307 -625 -108 -211 -215 -473 -237 -580 -3 -14 -8 -36 -11 -50
-4 -14 -8 -70 -10 -126 l-2 -101 -53 -49 c-109 -102 -146 -245 -109 -419 l17
-80 -50 -52 c-51 -55 -91 -129 -106 -198 -18 -85 0 -222 43 -319 l24 -54 -27
-25 c-33 -32 -77 -116 -92 -176 -30 -117 1 -297 70 -411 15 -25 25 -54 23 -65
-11 -48 -9 -195 3 -247 61 -261 283 -529 647 -781 206 -143 779 -454 1045
-567 29 -13 51 -24 50 -26 -4 -3 -75 21 -183 61 -77 29 -428 144 -515 169
-101 29 -244 58 -395 81 -120 18 -182 22 -310 20 -180 -4 -204 -7 -330 -40
-194 -51 -263 -92 -310 -189 -46 -95 -32 -201 43 -330 35 -59 148 -183 185
-203 18 -9 18 -11 -2 -49 -43 -82 -43 -182 0 -270 21 -45 62 -92 125 -146 29
-23 31 -30 25 -65 -25 -144 25 -256 134 -303 51 -22 91 -29 235 -45 94 -10
339 -4 440 10 215 31 449 87 637 154 328 116 708 310 1041 532 72 49 135 89
138 89 5 0 2 -23 -16 -130 -5 -30 -14 -100 -20 -155 -6 -55 -13 -122 -16 -150
-11 -86 -11 -386 -2 -480 21 -204 75 -354 153 -423 51 -45 100 -62 180 -62 47
0 67 -6 104 -29 121 -78 224 -98 322 -63 l56 20 45 -28 c79 -49 196 -61 289
-30 82 28 104 45 131 105 19 43 23 67 23 175 0 282 -54 455 -207 662 -82 111
-257 282 -358 351 -52 36 -5 15 83 -37 89 -53 348 -186 360 -186 4 0 30 -11
59 -24 75 -33 260 -100 308 -111 159 -37 213 -44 310 -41 84 3 117 9 168 29
108 44 171 95 221 180 21 35 26 37 71 37 159 0 277 127 280 301 0 22 4 26 28
24 45 -2 124 15 167 37 89 44 142 129 152 239 l6 57 46 12 c74 20 160 70 197
115 42 52 64 111 71 195 5 65 6 66 46 85 177 86 432 471 870 1315 119 230 159
305 171 319 16 21 -4 9 -89 -54 -38 -28 -106 -72 -150 -98 -70 -40 -112 -61
-270 -132 -144 -65 -390 -137 -685 -200 -8 -2 -35 -8 -60 -14 -25 -5 -56 -12
-70 -14 -14 -3 -43 -8 -65 -12 -22 -4 -47 -9 -55 -10 -39 -7 -517 -96 -535
-99 -11 -2 -41 -9 -68 -15 -26 -6 -64 -14 -85 -17 -20 -3 -46 -11 -57 -17 -11
-6 -20 -9 -20 -7 0 16 -513 -133 -550 -159 -5 -4 -32 -16 -60 -25 -125 -45
-428 -208 -593 -318 -235 -158 -514 -427 -672 -651 -18 -26 -37 -47 -42 -47
-5 0 -7 4 -4 9 5 7 38 165 61 290 2 13 9 47 15 75 61 301 92 557 93 766 0 89
-11 281 -18 318 -1 9 -6 40 -9 67 -22 171 -129 566 -195 720 -5 11 -19 45 -31
75 -105 259 -331 616 -695 1100 -180 239 -457 632 -530 752 -44 72 -215 361
-233 393 -46 81 -161 323 -205 430 -47 114 -125 343 -147 430 -18 68 -27 84
-28 47z m493 -4226 c28 -13 59 -31 70 -39 19 -14 18 -15 -15 -15 -152 -1 -175
-179 -42 -324 l40 -43 -60 -1 c-77 -1 -100 -21 -100 -88 0 -151 184 -323 642
-598 69 -41 144 -85 168 -97 56 -28 54 -35 -3 -11 -236 101 -578 303 -759 449
-70 56 -145 140 -173 195 -24 46 -42 130 -36 173 9 66 60 103 136 98 l37 -3
-44 49 c-45 50 -79 127 -71 164 2 11 4 28 4 38 1 22 57 75 85 80 33 5 67 -2
121 -27z m2123 -2214 c76 -102 133 -215 178 -348 31 -92 38 -125 40 -209 2
-89 0 -106 -23 -157 -21 -47 -33 -61 -67 -78 -23 -11 -53 -20 -66 -20 -28 0
-106 44 -119 67 -8 15 -12 13 -35 -14 -67 -79 -199 -64 -261 29 -29 43 -29 43
14 22 57 -29 141 -16 188 28 21 19 24 20 55 5 68 -32 100 -35 145 -16 68 29
100 102 98 224 -3 141 -52 284 -152 443 -18 29 -33 55 -33 59 0 3 -7 15 -17
25 -9 10 -13 18 -10 18 4 0 33 -35 65 -78z"/>
</g>
</svg>
